# xmcd
#
# Track frame offsets:
#	150
#	17191
#	33868
#	52399
#	84058
#	99202
#	122209
#	140110
#	163045
#	178048
#
# Disc length: 2486 seconds
#
# Revision: 0
# Processed by: cddbd v1.4PL0 Copyright (c) Steve Scherf et al.
# Submitted via: audiograbber 1.81.01
#
DISCID=8109b40a
DTITLE=POINT BLANK - Sunny sky
DYEAR=1997
DGENRE=Blues
TTITLE0=move your body
TTITLE1=your love's gonna save me
TTITLE2=ain't no lady
TTITLE3=sunny sky
TTITLE4=crossfire
TTITLE5=2 b free
TTITLE6=i belive
TTITLE7=sisters of mercy
TTITLE8=wow, wow, hm, hm...
TTITLE9=if
EXTD=
EXTT0=
EXTT1=
EXTT2=
EXTT3=
EXTT4=
EXTT5=
EXTT6=
EXTT7=
EXTT8=
EXTT9=
PLAYORDER=
